<svg width="31" height="31" viewBox="0 0 31 31" fill="none" xmlns="http://www.w3.org/2000/svg">
<path d="M3.70896 2.47266C3.02899 2.47266 2.47264 3.029 2.47264 3.70898V27.1991C2.47264 27.8791 3.02899 28.4354 3.70896 28.4354H27.1991C27.8791 28.4354 28.4354 27.8791 28.4354 27.1991V3.70898C28.4354 3.029 27.8791 2.47266 27.1991 2.47266H3.70896ZM11.0834 8.65427H12.7653L15.7317 22.2538H14.2237L13.3641 18.2792H10.3977L9.51992 22.2538H8.03609L11.0834 8.65427ZM11.8875 10.1622C11.7268 11.1698 11.5287 12.3202 11.3309 13.2289L10.6512 16.6904H13.1794L12.4803 13.2096C12.2825 12.2576 12.1038 11.1513 11.9431 10.1622H11.8875ZM20.1023 12.3632C22.7851 12.3632 23.4901 15.2193 23.4901 16.7338V17.352H17.9267C17.9267 18.1 18.0445 19.4478 18.7863 20.2762C19.2376 20.7769 19.8429 21.0175 20.6589 21.0175C21.5985 21.0175 22.5941 20.548 22.6003 20.5418L23.1376 21.6538C23.0881 21.6785 21.889 22.2538 20.6589 22.2538C19.4906 22.2538 18.5512 21.8649 17.8651 21.0984C16.4928 19.5653 16.6836 17.0487 16.7145 16.6964C16.7269 15.1819 17.4442 12.3632 20.1023 12.3632ZM20.1023 13.5996C18.5631 13.5996 18.1239 15.2008 18.0003 16.1157H22.2043C22.0807 15.2008 21.6477 13.5996 20.1023 13.5996Z" fill="url(#paint0_linear_81_9)"/>
<defs>
<linearGradient id="paint0_linear_81_9" x1="15.454" y1="2.47266" x2="15.454" y2="28.4354" gradientUnits="userSpaceOnUse">
<stop stop-color="#6EC887"/>
<stop offset="1" stop-color="#4CA264"/>
</linearGradient>
</defs>
</svg>
