<svg width="31" height="31" viewBox="0 0 31 31" fill="none" xmlns="http://www.w3.org/2000/svg">
<path d="M3.70896 2.47266C3.02899 2.47266 2.47264 3.029 2.47264 3.70898V27.1991C2.47264 27.8791 3.02899 28.4354 3.70896 28.4354H27.1991C27.8791 28.4354 28.4354 27.8791 28.4354 27.1991V3.70898C28.4354 3.029 27.8791 2.47266 27.1991 2.47266H3.70896ZM12.3198 8.65427H14.0016L16.968 22.2538H15.4601L14.6004 18.2792H11.634L10.7562 22.2538H9.27241L12.3198 8.65427ZM20.2327 8.65427C20.8076 8.65427 21.172 9.04404 21.172 9.61893C21.172 10.2 20.8076 10.5896 20.2327 10.5896H20.2134C19.7065 10.5896 19.3175 10.2 19.3175 9.61893C19.3175 9.04404 19.7258 8.65427 20.2327 8.65427ZM13.1238 10.1622C12.9631 11.1698 12.7651 12.3202 12.5673 13.2289L11.8875 16.6904H14.4157L13.7166 13.2096C13.5188 12.2576 13.3401 11.1513 13.1794 10.1622H13.1238ZM19.4721 11.7451H21.0175V22.2538H19.4721V11.7451Z" fill="url(#paint0_linear_81_12)"/>
<defs>
<linearGradient id="paint0_linear_81_12" x1="15.454" y1="2.47266" x2="15.454" y2="28.4354" gradientUnits="userSpaceOnUse">
<stop stop-color="#6EC887"/>
<stop offset="1" stop-color="#4CA264"/>
</linearGradient>
</defs>
</svg>
