<svg width="31" height="31" viewBox="0 0 31 31" fill="none" xmlns="http://www.w3.org/2000/svg">
<path d="M3.70896 2.47266C3.02899 2.47266 2.47264 3.029 2.47264 3.70898V27.1991C2.47264 27.8791 3.02899 28.4354 3.70896 28.4354H27.1991C27.8791 28.4354 28.4354 27.8791 28.4354 27.1991V3.70898C28.4354 3.029 27.8791 2.47266 27.1991 2.47266H3.70896ZM11.4855 8.65427C12.7156 8.65427 13.7606 8.95118 14.4592 9.62497C15.0897 10.2555 15.4226 11.2263 15.4226 12.3946C15.4226 13.6186 15.1268 14.447 14.6137 15.1208C13.9028 16.1099 12.6542 16.6034 11.4674 16.6034C11.2139 16.6034 11.0162 16.6039 10.7937 16.5853V22.2538H9.27241V8.91384C9.88439 8.75312 10.5953 8.65427 11.4855 8.65427ZM11.733 9.66844C11.3744 9.66844 11.0772 9.70562 10.8794 9.76744V15.0894C11.0587 15.108 11.2381 15.1268 11.4915 15.1268C12.9751 15.1268 13.9823 14.1374 13.9823 12.2582C13.9823 10.8921 13.4329 9.66844 11.733 9.66844ZM19.6025 12.3632C20.3875 12.3632 20.9558 12.6048 21.37 12.8582L20.9559 14.0137C20.5665 13.754 20.1582 13.5754 19.6266 13.5754C18.7859 13.5754 18.3529 14.1678 18.3529 14.8045C18.3529 15.4412 18.6003 15.8182 19.5831 16.4549C20.7329 17.172 21.6356 18.0621 21.6356 19.3912C21.6356 21.3199 20.2821 22.2538 18.6378 22.2538C17.9207 22.2538 17.1231 22.0372 16.6903 21.6972L17.0803 20.5478C17.4327 20.7642 18.0445 21.0416 18.6813 21.0416C19.5652 21.0416 20.1397 20.5038 20.1397 19.6508C20.1397 18.9152 19.8736 18.4028 18.866 17.7661C17.574 16.9501 16.8763 16.1158 16.8763 15.0278C16.8763 13.4577 18.0632 12.3632 19.6025 12.3632Z" fill="url(#paint0_linear_81_6)"/>
<defs>
<linearGradient id="paint0_linear_81_6" x1="15.454" y1="2.47266" x2="15.454" y2="28.4354" gradientUnits="userSpaceOnUse">
<stop stop-color="#6EC887"/>
<stop offset="1" stop-color="#4CA264"/>
</linearGradient>
</defs>
</svg>
