<svg width="31" height="31" viewBox="0 0 31 31" fill="none" xmlns="http://www.w3.org/2000/svg">
<path d="M20.6054 14.1662C22.7432 14.1662 24.456 12.4405 24.456 10.3027C24.456 8.16491 22.7432 6.43921 20.6054 6.43921C18.4676 6.43921 16.7419 8.16491 16.7419 10.3027C16.7419 12.4405 18.4676 14.1662 20.6054 14.1662ZM10.3027 14.1662C12.4405 14.1662 14.1533 12.4405 14.1533 10.3027C14.1533 8.16491 12.4405 6.43921 10.3027 6.43921C8.16488 6.43921 6.43918 8.16491 6.43918 10.3027C6.43918 12.4405 8.16488 14.1662 10.3027 14.1662ZM10.3027 16.7419C7.30203 16.7419 1.28784 18.2487 1.28784 21.2493V23.1811C1.28784 23.8894 1.86737 24.4689 2.57568 24.4689H18.0297C18.738 24.4689 19.3175 23.8894 19.3175 23.1811V21.2493C19.3175 18.2487 13.3033 16.7419 10.3027 16.7419ZM20.6054 16.7419C20.2319 16.7419 19.8069 16.7676 19.3562 16.8063C19.3819 16.8192 19.3948 16.8449 19.4077 16.8578C20.8758 17.9267 21.8932 19.3562 21.8932 21.2493V23.1811C21.8932 23.6318 21.8031 24.0697 21.6614 24.4689H28.3324C29.0407 24.4689 29.6202 23.8894 29.6202 23.1811V21.2493C29.6202 18.2487 23.606 16.7419 20.6054 16.7419Z" fill="url(#paint0_linear_81_23)"/>
<defs>
<linearGradient id="paint0_linear_81_23" x1="15.454" y1="6.43921" x2="15.454" y2="24.4689" gradientUnits="userSpaceOnUse">
<stop stop-color="#6EC887"/>
<stop offset="1" stop-color="#4CA264"/>
</linearGradient>
</defs>
</svg>
