<svg width="31" height="31" viewBox="0 0 31 31" fill="none" xmlns="http://www.w3.org/2000/svg">
<g clip-path="url(#clip0_81_15)">
<path d="M9.01484 25.7567H14.1662C14.1662 27.1733 13.0071 28.3324 11.5905 28.3324C10.1739 28.3324 9.01484 27.1733 9.01484 25.7567ZM6.43917 23.181C6.43917 23.8893 7.0187 24.4689 7.72701 24.4689H15.454C16.1623 24.4689 16.7419 23.8893 16.7419 23.181C16.7419 22.4727 16.1623 21.8932 15.454 21.8932H7.72701C7.0187 21.8932 6.43917 22.4727 6.43917 23.181ZM21.2493 12.2344C21.2493 17.154 17.8236 19.7811 16.3941 20.6054H6.78689C5.35739 19.7811 1.93175 17.154 1.93175 12.2344C1.93175 6.9028 6.25887 2.57567 11.5905 2.57567C16.9221 2.57567 21.2493 6.9028 21.2493 12.2344ZM27.521 9.49135L25.7567 10.3027L27.521 11.114L28.3324 12.8784L29.1437 11.114L30.908 10.3027L29.1437 9.49135L28.3324 7.72701L27.521 9.49135ZM24.4689 7.72701L25.6794 5.07407L28.3324 3.86351L25.6794 2.65294L24.4689 0L23.2583 2.65294L20.6054 3.86351L23.2583 5.07407L24.4689 7.72701Z" fill="url(#paint0_linear_81_15)"/>
</g>
<defs>
<linearGradient id="paint0_linear_81_15" x1="16.4199" y1="0" x2="16.4199" y2="28.3324" gradientUnits="userSpaceOnUse">
<stop stop-color="#6EC887"/>
<stop offset="1" stop-color="#4CA264"/>
</linearGradient>
<clipPath id="clip0_81_15">
<rect width="30.908" height="30.908" fill="white"/>
</clipPath>
</defs>
</svg>
