<svg width="24" height="26" viewBox="0 0 24 26" fill="none" xmlns="http://www.w3.org/2000/svg">
<g clip-path="url(#clip0_81_27)">
<path d="M17.5 4.77661C15.55 4.77661 13.45 5.20119 12 6.36879C10.55 5.20119 8.45 4.77661 6.5 4.77661C5.05 4.77661 3.51 5.01013 2.22 5.61516C1.49 5.96544 1 6.71907 1 7.57885V19.552C1 20.9319 2.22 21.9509 3.48 21.6112C4.46 21.3459 5.5 21.2291 6.5 21.2291C8.06 21.2291 9.72 21.5051 11.06 22.2057C11.66 22.5241 12.34 22.5241 12.93 22.2057C14.27 21.4945 15.93 21.2291 17.49 21.2291C18.49 21.2291 19.53 21.3459 20.51 21.6112C21.77 21.9615 22.99 20.9425 22.99 19.552V7.57885C22.99 6.71907 22.5 5.96544 21.77 5.61516C20.49 5.01013 18.95 4.77661 17.5 4.77661ZM21 18.2889C21 18.9576 20.42 19.4459 19.8 19.3291C19.05 19.1805 18.27 19.1168 17.5 19.1168C15.8 19.1168 13.35 19.8068 12 20.709V8.4917C13.35 7.58946 15.8 6.89952 17.5 6.89952C18.42 6.89952 19.33 6.99505 20.2 7.19672C20.66 7.30287 21 7.73806 21 8.23695V18.2889Z" fill="url(#paint0_linear_81_27)"/>
<path d="M13.98 11.6867C13.66 11.6867 13.37 11.4744 13.27 11.1348C13.14 10.7208 13.36 10.2644 13.75 10.137C15.29 9.60627 17.28 9.43644 19.11 9.65935C19.52 9.71242 19.82 10.1052 19.77 10.5404C19.72 10.9755 19.35 11.294 18.94 11.2409C17.32 11.0392 15.55 11.1985 14.21 11.6549C14.13 11.6655 14.05 11.6867 13.98 11.6867Z" fill="url(#paint1_linear_81_27)"/>
<path d="M13.98 14.5102C13.66 14.5102 13.37 14.2979 13.27 13.9583C13.14 13.5443 13.36 13.0879 13.75 12.9605C15.28 12.4298 17.28 12.2599 19.11 12.4828C19.52 12.5359 19.82 12.9286 19.77 13.3638C19.72 13.799 19.35 14.1175 18.94 14.0644C17.32 13.8627 15.55 14.0219 14.21 14.4784C14.13 14.4996 14.05 14.5102 13.98 14.5102Z" fill="url(#paint2_linear_81_27)"/>
<path d="M13.98 17.3337C13.66 17.3337 13.37 17.1214 13.27 16.7817C13.14 16.3678 13.36 15.9113 13.75 15.784C15.28 15.2532 17.28 15.0834 19.11 15.3063C19.52 15.3594 19.82 15.7521 19.77 16.1873C19.72 16.6225 19.35 16.9303 18.94 16.8879C17.32 16.6862 15.55 16.8454 14.21 17.3018C14.13 17.3231 14.05 17.3337 13.98 17.3337Z" fill="url(#paint3_linear_81_27)"/>
</g>
<defs>
<linearGradient id="paint0_linear_81_27" x1="11.995" y1="4.77661" x2="11.995" y2="22.4445" gradientUnits="userSpaceOnUse">
<stop stop-color="#6EC887"/>
<stop offset="1" stop-color="#4CA264"/>
</linearGradient>
<linearGradient id="paint1_linear_81_27" x1="16.504" y1="9.56372" x2="16.504" y2="11.6867" gradientUnits="userSpaceOnUse">
<stop stop-color="#6EC887"/>
<stop offset="1" stop-color="#4CA264"/>
</linearGradient>
<linearGradient id="paint2_linear_81_27" x1="16.504" y1="12.3872" x2="16.504" y2="14.5102" gradientUnits="userSpaceOnUse">
<stop stop-color="#6EC887"/>
<stop offset="1" stop-color="#4CA264"/>
</linearGradient>
<linearGradient id="paint3_linear_81_27" x1="16.504" y1="15.2107" x2="16.504" y2="17.3337" gradientUnits="userSpaceOnUse">
<stop stop-color="#6EC887"/>
<stop offset="1" stop-color="#4CA264"/>
</linearGradient>
<clipPath id="clip0_81_27">
<rect width="24" height="25.4749" fill="white"/>
</clipPath>
</defs>
</svg>
