<svg width="34" height="82" viewBox="0 0 34 82" fill="none" xmlns="http://www.w3.org/2000/svg">
<path opacity="0.5" d="M17.5483 79.5829C17.1634 80.2496 16.2011 80.2496 15.8162 79.5829L3.25886 57.8329C2.87396 57.1662 3.35508 56.3329 4.12488 56.3329H29.2396C30.0094 56.3329 30.4905 57.1662 30.1056 57.8329L17.5483 79.5829Z" fill="#9DF8B6"/>
<path opacity="0.5" d="M17.4572 55.5414C17.0723 56.208 16.1101 56.208 15.7252 55.5414L3.16779 33.7914C2.78289 33.1247 3.26402 32.2914 4.03382 32.2914H29.1486C29.9184 32.2914 30.3995 33.1247 30.0146 33.7914L17.4572 55.5414Z" fill="#90E9A9"/>
<path opacity="0.5" d="M17.366 31.5C16.9811 32.1667 16.0189 32.1667 15.634 31.5L3.0766 9.75C2.69171 9.08333 3.17283 8.25 3.94263 8.25L29.0574 8.25C29.8272 8.25 30.3083 9.08333 29.9234 9.75L17.366 31.5Z" fill="#82DD9C"/>
</svg>
