<svg width="24" height="24" viewBox="0 0 24 24" fill="none" xmlns="http://www.w3.org/2000/svg">
<path d="M12 2.24634C17.5229 2.24634 22 6.72342 22 12.2463C22 16.6863 19.105 20.4484 15.1004 21.7538C15.1017 21.7501 15.1033 21.7447 15.1033 21.7447C15.1033 21.7447 14.4283 21.4284 14.4425 20.8638C14.4583 20.2426 14.4425 18.7926 14.4425 18.2605C14.4425 17.3468 13.8642 16.6993 13.8642 16.6993C13.8642 16.6993 18.3992 16.7501 18.3992 11.9113C18.3992 10.0443 17.4233 9.07301 17.4233 9.07301C17.4233 9.07301 17.9358 7.07967 17.2458 6.23467C16.4725 6.15134 15.0875 6.97384 14.4958 7.35842C14.4958 7.35842 13.5583 6.97425 11.9996 6.97425C10.4404 6.97425 9.50333 7.35842 9.50333 7.35842C8.91208 6.97425 7.52667 6.15134 6.75333 6.23467C6.06333 7.08009 6.57583 9.07301 6.57583 9.07301C6.57583 9.07301 5.6 10.0447 5.6 11.9113C5.6 16.7501 10.135 16.6993 10.135 16.6993C10.135 16.6993 9.67792 17.2155 9.57833 17.9747C9.26167 18.0822 8.79625 18.2147 8.42 18.2147C7.43583 18.2147 6.68708 17.258 6.41292 16.8155C6.1425 16.3788 5.58792 16.0126 5.07083 16.0126C4.73042 16.0126 4.56417 16.183 4.56417 16.3776C4.56417 16.5722 5.04167 16.708 5.35667 17.0688C6.02083 17.8297 6.00875 19.5409 8.37542 19.5409C8.6325 19.5409 9.15708 19.4776 9.55167 19.4247C9.54917 19.9634 9.54875 20.5318 9.55708 20.8638C9.57125 21.4284 8.89625 21.7447 8.89625 21.7447C8.89625 21.7447 8.89792 21.7501 8.89917 21.7538C4.895 20.4484 2 16.6863 2 12.2463C2 6.72342 6.47708 2.24634 12 2.24634Z" fill="url(#paint0_linear_81_49)"/>
<defs>
<linearGradient id="paint0_linear_81_49" x1="12" y1="2.24634" x2="12" y2="21.7538" gradientUnits="userSpaceOnUse">
<stop stop-color="#6EC887"/>
<stop offset="1" stop-color="#4CA264"/>
</linearGradient>
</defs>
</svg>
