<svg width="24" height="26" viewBox="0 0 24 26" fill="none" xmlns="http://www.w3.org/2000/svg">
<g clip-path="url(#clip0_81_37)">
<path d="M12.65 16.6329C12.79 16.2507 12.7 15.8155 12.42 15.5183L10.33 13.3317L10.36 13.2999C12.1 11.2407 13.34 8.87364 14.07 6.36861H16.01C16.55 6.36861 17 5.89096 17 5.31778V5.29655C17 4.72336 16.55 4.24571 16.01 4.24571H10V3.18426C10 2.60046 9.55 2.1228 9 2.1228C8.45 2.1228 8 2.60046 8 3.18426V4.24571H1.99C1.45 4.24571 1 4.72336 1 5.29655C1 5.88034 1.45 6.34738 1.99 6.34738H12.17C11.5 8.4066 10.44 10.3491 9 12.0474C8.19 11.1027 7.51 10.0731 6.94 8.9904C6.78 8.68258 6.49 8.49152 6.16 8.49152C5.47 8.49152 5.03 9.28761 5.37 9.92448C6 11.1239 6.77 12.2703 7.67 13.3317L3.3 17.9066C2.9 18.3206 2.9 18.9999 3.3 19.4139C3.69 19.8278 4.32 19.8278 4.72 19.4139L9 14.8602L11.02 17.0044C11.53 17.5457 12.4 17.344 12.65 16.6329ZM17.5 10.6144C16.9 10.6144 16.36 11.0072 16.15 11.6122L12.48 22.0144C12.24 22.6619 12.7 23.3519 13.35 23.3519C13.74 23.3519 14.09 23.0971 14.23 22.7044L15.12 20.1675H19.87L20.77 22.7044C20.91 23.0865 21.26 23.3519 21.65 23.3519C22.3 23.3519 22.76 22.6619 22.53 22.0144L18.86 11.6122C18.64 11.0072 18.1 10.6144 17.5 10.6144ZM15.88 18.0446L17.5 13.4485L19.12 18.0446H15.88Z" fill="url(#paint0_linear_81_37)"/>
</g>
<defs>
<linearGradient id="paint0_linear_81_37" x1="11.795" y1="2.1228" x2="11.795" y2="23.3519" gradientUnits="userSpaceOnUse">
<stop stop-color="#6EC887"/>
<stop offset="1" stop-color="#4CA264"/>
</linearGradient>
<clipPath id="clip0_81_37">
<rect width="24" height="25.4749" fill="white"/>
</clipPath>
</defs>
</svg>
