<svg width="24" height="24" viewBox="0 0 24 24" fill="none" xmlns="http://www.w3.org/2000/svg">
<path d="M12 0.959961C5.91266 0.959961 0.960022 5.91212 0.960022 12C0.960022 18.0878 5.91266 23.04 12 23.04C18.0874 23.04 23.04 18.0878 23.04 12C23.04 5.91212 18.0874 0.959961 12 0.959961ZM8.64002 16.8H6.72002V9.59996H8.64002V16.8ZM7.68002 8.15996C7.14962 8.15996 6.72002 7.73036 6.72002 7.19996C6.72002 6.66956 7.14962 6.23996 7.68002 6.23996C8.21042 6.23996 8.64002 6.66956 8.64002 7.19996C8.64002 7.73036 8.21042 8.15996 7.68002 8.15996ZM17.76 16.8H15.84V14.4V13.2C15.84 12.276 15.084 11.52 14.16 11.52C13.236 11.52 12.48 12.276 12.48 13.2V16.8H10.56V9.59996H12.48V10.4716C13.0407 9.93308 13.801 9.59996 14.64 9.59996C16.3632 9.59996 17.76 10.9968 17.76 12.72V16.8Z" fill="url(#paint0_linear_81_52)"/>
<defs>
<linearGradient id="paint0_linear_81_52" x1="12" y1="0.959961" x2="12" y2="23.04" gradientUnits="userSpaceOnUse">
<stop stop-color="#6EC887"/>
<stop offset="1" stop-color="#4CA264"/>
</linearGradient>
</defs>
</svg>
