<svg width="31" height="31" viewBox="0 0 31 31" fill="none" xmlns="http://www.w3.org/2000/svg">
<path d="M24.4689 3.86351H19.0857C18.5448 2.36962 17.1282 1.28784 15.454 1.28784C13.7798 1.28784 12.3632 2.36962 11.8223 3.86351H6.43917C5.02255 3.86351 3.86349 5.02256 3.86349 6.43918V24.4689C3.86349 25.8855 5.02255 27.0445 6.43917 27.0445H24.4689C25.8855 27.0445 27.0445 25.8855 27.0445 24.4689V6.43918C27.0445 5.02256 25.8855 3.86351 24.4689 3.86351ZM15.454 3.86351C16.1623 3.86351 16.7418 4.44304 16.7418 5.15135C16.7418 5.85966 16.1623 6.43918 15.454 6.43918C14.7457 6.43918 14.1662 5.85966 14.1662 5.15135C14.1662 4.44304 14.7457 3.86351 15.454 3.86351ZM16.7418 21.8932H10.3027C9.59436 21.8932 9.01484 21.3137 9.01484 20.6054C9.01484 19.8971 9.59436 19.3175 10.3027 19.3175H16.7418C17.4502 19.3175 18.0297 19.8971 18.0297 20.6054C18.0297 21.3137 17.4502 21.8932 16.7418 21.8932ZM20.6054 16.7419H10.3027C9.59436 16.7419 9.01484 16.1623 9.01484 15.454C9.01484 14.7457 9.59436 14.1662 10.3027 14.1662H20.6054C21.3137 14.1662 21.8932 14.7457 21.8932 15.454C21.8932 16.1623 21.3137 16.7419 20.6054 16.7419ZM20.6054 11.5905H10.3027C9.59436 11.5905 9.01484 11.011 9.01484 10.3027C9.01484 9.59438 9.59436 9.01485 10.3027 9.01485H20.6054C21.3137 9.01485 21.8932 9.59438 21.8932 10.3027C21.8932 11.011 21.3137 11.5905 20.6054 11.5905Z" fill="url(#paint0_linear_81_19)"/>
<defs>
<linearGradient id="paint0_linear_81_19" x1="15.454" y1="1.28784" x2="15.454" y2="27.0445" gradientUnits="userSpaceOnUse">
<stop stop-color="#6EC887"/>
<stop offset="1" stop-color="#4CA264"/>
</linearGradient>
</defs>
</svg>
